<?xml version="1.0" encoding="UTF-8"?>
<svg version="1.1" xmlns="http://www.w3.org/2000/svg" width="30" height="30" viewBox="0 0 512 512">
<path d="M0 0 C5.96699389 3.59049694 8.74694023 8.51868431 11.4375 14.75 C11.76814453 15.47832031 12.09878906 16.20664062 12.43945312 16.95703125 C13.64614399 19.6291489 14.82134868 22.31539637 16 25 C18.64 30.94 21.28 36.88 24 43 C43.14 43 62.28 43 82 43 C87.00845556 31.80257705 87.00845556 31.80257705 91.99072266 20.59350586 C92.63090251 19.1751968 93.2719595 17.75728319 93.9140625 16.33984375 C94.22883545 15.61994263 94.5436084 14.9000415 94.86791992 14.1583252 C97.31322124 8.80364411 100.54205162 2.72897419 106 0 C111.55879415 -0.50761444 116.43348556 -0.71455045 121.5625 1.625 C125.5675852 5.52739071 127.15467938 8.9066412 127.3828125 14.4609375 C127.30777667 20.99143658 124.76100649 26.18696201 122 32 C121.0598241 34.04043581 120.12218597 36.08204352 119.1875 38.125 C118.76855469 39.01445313 118.34960938 39.90390625 117.91796875 40.8203125 C116.87062305 42.91301788 116.87062305 42.91301788 117 45 C118.32451172 45.41958984 118.32451172 45.41958984 119.67578125 45.84765625 C138.87672322 52.26171957 152.24700233 63.6324675 161.5625 81.7890625 C166.64448534 93.14067105 167.14803488 104.34557538 167.09765625 116.58984375 C167.09553383 118.53933678 167.09553383 118.53933678 167.09336853 120.5282135 C167.08957334 123.96243253 167.07976908 127.39660842 167.06866455 130.83081055 C167.05838555 134.34358131 167.05385708 137.85635912 167.04882812 141.36914062 C167.03814376 148.24611133 167.02110388 155.12305359 167 162 C168.30485352 161.98259766 169.60970703 161.96519531 170.95410156 161.94726562 C172.68293948 161.93319096 174.41178089 161.9195415 176.140625 161.90625 C177.42767334 161.88739746 177.42767334 161.88739746 178.74072266 161.86816406 C186.29429855 161.8246276 192.21628814 162.66483524 198.04296875 167.80078125 C203.79407525 173.90762629 206.36571296 179.68031689 206.26367188 188.01367188 C206.23853516 188.81353516 206.21339844 189.61339844 206.1875 190.4375 C206.17396484 191.26443359 206.16042969 192.09136719 206.14648438 192.94335938 C206.11146992 194.9625264 206.05767562 196.98135318 206 199 C216.87667451 195.24763376 227.24784675 190.79974152 235 182 C235.60199219 181.40058594 236.20398438 180.80117187 236.82421875 180.18359375 C250.84610075 165.68096151 253.40660947 148.43429534 253.51123047 129.11352539 C253.63842786 112.81491393 253.63842786 112.81491393 258.53515625 107.2578125 C263.98927478 103.21255835 267.25674245 102.23723808 274 103 C278.37750525 104.33709791 280.59847896 106.41071732 283.171875 110.1875 C286.17880875 116.54579939 285.55760008 123.62657986 285.4375 130.5 C285.43034973 131.21720215 285.42319946 131.9344043 285.41583252 132.67333984 C285.11420589 161.58421229 276.39561297 184.78624416 256.4375 206 C242.49914637 219.57548684 225.63861015 226.42826543 207 231 C206.67 240.57 206.34 250.14 206 260 C208.64894287 259.98428955 211.29788574 259.9685791 214.02709961 259.95239258 C222.8000854 259.90258103 231.57307759 259.86950486 240.34616756 259.84456348 C245.66290229 259.82893827 250.97949155 259.80775749 256.29614258 259.77368164 C261.43141158 259.74097601 266.56654105 259.72312335 271.7019062 259.71536827 C273.65662391 259.70984485 275.61133438 259.69905908 277.56599236 259.68280983 C280.31360987 259.66088654 283.06065807 259.65803927 285.80834961 259.65942383 C287.00813698 259.64324509 287.00813698 259.64324509 288.23216248 259.6267395 C293.83302533 259.65708233 298.90327482 260.58744039 304 263 C308.82365838 267.94424984 309.3466072 271.52744294 309.28515625 278.234375 C308.7889048 283.0473343 306.46185415 285.71534029 302.9375 288.8125 C298.5530677 291.4997327 294.1749917 291.1345214 289.21411133 291.11352539 C287.86746147 291.11374443 287.86746147 291.11374443 286.49360657 291.1139679 C283.52305697 291.11327064 280.55256991 291.10548697 277.58203125 291.09765625 C275.52365656 291.09579141 273.46528142 291.09436782 271.40690613 291.09336853 C265.98669206 291.08954859 260.56650476 291.07972273 255.14630127 291.06866455 C249.61641807 291.05843921 244.08653055 291.0538685 238.55664062 291.04882812 C227.70441343 291.03810002 216.85221313 291.02050742 206 291 C206 300.9 206 310.8 206 321 C208.97 321.33 211.94 321.66 215 322 C217.71511905 322.81559838 220.25392604 323.65197759 222.875 324.6875 C223.90862671 325.08787476 223.90862671 325.08787476 224.96313477 325.49633789 C234.6487358 329.34101257 243.0388397 334.27323564 251 341 C251.80179687 341.65613281 252.60359375 342.31226563 253.4296875 342.98828125 C272.15421519 358.9420455 282.12738319 380.76058576 285 405 C285.25449316 409.75374009 285.33053754 414.48786915 285.31567383 419.24755859 C285.31247255 421.3934022 285.33621964 423.5379153 285.36132812 425.68359375 C285.36359815 427.06770662 285.364306 428.45182314 285.36328125 429.8359375 C285.36775269 431.68517822 285.36775269 431.68517822 285.37231445 433.57177734 C284.82006082 438.65685641 283.22461859 441.89485639 279.4375 445.3125 C274.48002278 448.74459961 269.91632795 448.60166047 264 448 C259.49088833 445.82596402 257.14180817 443.50906984 255 439 C253.84746186 435.44196937 253.85929714 432.04366952 253.82421875 428.3203125 C253.80097713 426.98436 253.77685819 425.64842253 253.75195312 424.3125 C253.71725149 422.23525556 253.68772041 420.15854999 253.67407227 418.08105469 C253.52373337 398.88393445 248.0261194 382.92454394 234.890625 368.71875 C227.42989581 361.40823684 217.27752695 355.33592981 207 353 C206.96559814 353.72775635 206.93119629 354.4555127 206.89575195 355.20532227 C204.7258876 398.07444085 192.28275156 439.34185958 160.1796875 469.72265625 C158.15262072 471.52403746 156.08324721 473.26396066 154 475 C153.21109375 475.68835938 152.4221875 476.37671875 151.609375 477.0859375 C124.21622528 500.46033172 89.44281266 512.22178483 53.6875 512.25 C52.92333771 512.25067474 52.15917542 512.25134949 51.37185669 512.25204468 C39.97208821 512.2360323 29.10568197 511.78480847 18 509 C17.30245605 508.82839355 16.60491211 508.65678711 15.88623047 508.47998047 C-10.12948587 501.93363763 -35.61506571 488.75458556 -54 469 C-55.175625 467.8553125 -55.175625 467.8553125 -56.375 466.6875 C-87.43359756 434.88941202 -99.08497725 396.54156987 -101 353 C-117.57764616 358.35779439 -131.00216218 367.78984654 -140 383 C-141.97157725 387.24917539 -143.6083777 391.52846943 -145 396 C-145.36480469 397.13050781 -145.72960937 398.26101563 -146.10546875 399.42578125 C-147.84680369 406.59382062 -147.39027541 414.24641814 -147.45629883 421.59130859 C-147.61437519 436.36710523 -147.61437519 436.36710523 -151 443 C-156.02039361 447.77549636 -159.48541291 448.34699229 -166.234375 448.28515625 C-171.0473343 447.7889048 -173.71534029 445.46185415 -176.8125 441.9375 C-183.77619505 430.57568176 -179.6137461 403.84379871 -176.83837891 391.56298828 C-170.82844659 367.78279039 -156.45542963 347.0485406 -135.6875 333.75 C-125.14574262 327.56000011 -112.49744161 321 -100 321 C-100 311.1 -100 301.2 -100 291 C-102.75553223 291.01571045 -105.51106445 291.0314209 -108.35009766 291.04760742 C-117.45838261 291.09733561 -126.56667358 291.13046194 -135.67505836 291.15543652 C-141.19701956 291.17108669 -146.71884156 291.19231336 -152.24072266 291.22631836 C-157.57049298 291.25893458 -162.90012948 291.2768579 -168.22999191 291.28463173 C-170.26254762 291.29017114 -172.29509608 291.30098827 -174.32759476 291.31719017 C-177.17640208 291.33899431 -180.0246577 291.34196565 -182.87353516 291.34057617 C-184.13157959 291.35675491 -184.13157959 291.35675491 -185.41503906 291.3732605 C-190.3557959 291.34721635 -193.7153037 290.72793872 -198 288 C-202.67053735 282.8245397 -203.35288022 279.60631056 -203.28125 272.765625 C-202.88814794 268.9001214 -201.61907755 266.83143519 -199 264 C-193.20371458 259.68994161 -187.25079102 259.85561758 -180.26245117 259.88647461 C-179.39365326 259.88632858 -178.52485535 259.88618256 -177.62973022 259.8860321 C-174.76745071 259.88672694 -171.90523685 259.89449927 -169.04296875 259.90234375 C-167.05471329 259.90420945 -165.06645738 259.90563264 -163.07820129 259.90663147 C-157.85200729 259.91044466 -152.6258412 259.92026472 -147.3996582 259.93133545 C-142.06396868 259.94157533 -136.72827464 259.94613461 -131.39257812 259.95117188 C-120.9283712 259.96188806 -110.46419229 259.97947517 -100 260 C-100.33 250.43 -100.66 240.86 -101 231 C-103.145 230.484375 -105.29 229.96875 -107.5 229.4375 C-132.944912 222.80861569 -153.52062733 207.54749229 -166.9453125 184.87597656 C-175.98662179 168.79416625 -179.19411238 151.49308861 -179.29516602 133.23950195 C-179.30670854 131.78985857 -179.32719654 130.34025844 -179.35668945 128.89086914 C-179.6638955 113.74509618 -179.6638955 113.74509618 -175 107 C-170.78415525 103.36813254 -166.67306855 102.34042264 -161.140625 102.61328125 C-156.5147256 103.44898205 -153.77824398 106.15865516 -150.6875 109.5 C-147.78510916 113.79983829 -147.86399505 117.62433871 -147.7890625 122.75 C-147.76095404 124.09506342 -147.73228941 125.44011531 -147.703125 126.78515625 C-147.66224928 128.8800371 -147.62532214 130.97471221 -147.59863281 133.06982422 C-147.32958217 152.5574408 -142.25018246 169.96605703 -128 184 C-119.5269448 190.97205184 -110.3846571 195.53844763 -100 199 C-100.05800781 197.81664062 -100.11601563 196.63328125 -100.17578125 195.4140625 C-100.5295051 185.18960422 -100.48317681 177.2151543 -93.390625 169.17578125 C-87.39481895 163.49626772 -80.62822404 161.64231353 -72.54296875 161.73632812 C-71.70378906 161.76146484 -70.86460937 161.78660156 -70 161.8125 C-69.12988281 161.82603516 -68.25976562 161.83957031 -67.36328125 161.85351562 C-65.24191373 161.88848322 -63.12087026 161.9422747 -61 162 C-61.00999275 160.9378981 -61.00999275 160.9378981 -61.02018738 159.8543396 C-61.08077746 153.11875923 -61.12621449 146.38322058 -61.15543652 139.64743614 C-61.17096591 136.18606128 -61.19196487 132.72491515 -61.22631836 129.26367188 C-61.26573007 125.26690722 -61.27981405 121.27037555 -61.29296875 117.2734375 C-61.30845261 116.05514252 -61.32393646 114.83684753 -61.33988953 113.58163452 C-61.3437085 93.69124358 -55.04377318 75.85342088 -41.41015625 61.1953125 C-32.52101864 53.09856155 -22.39561629 48.44639459 -11 45 C-12.338985 40.58922588 -13.79435334 36.36298274 -15.7578125 32.19140625 C-19.91488677 23.34400105 -23.12763428 16.38290283 -19.875 6.625 C-14.97318736 -0.2375377 -8.07014925 -1.89287233 0 0 Z M-22.375 86.5625 C-39.02549806 107.58260391 -30 136.47627884 -30 162 C24.78 162 79.56 162 136 162 C140.75332227 118.49800138 140.75332227 118.49800138 125.40625 83.30859375 C116.61295348 75.0337699 105.6987855 73.85300675 94.14599609 73.83886719 C93.16953125 73.83390228 92.19306641 73.82893738 91.18701172 73.82382202 C87.96581305 73.80925275 84.74466367 73.8024063 81.5234375 73.796875 C79.27389526 73.79111824 77.02435303 73.78536058 74.77481079 73.77960205 C70.05901868 73.76910624 65.34324355 73.76325461 60.62744141 73.75976562 C54.6089112 73.75429092 48.59060836 73.73027856 42.57214928 73.70179367 C37.9239132 73.68309187 33.27573099 73.67795763 28.62746048 73.67642975 C26.41007879 73.67341855 24.1926977 73.66544236 21.97535324 73.65224457 C-2.57064356 73.35589597 -2.57064356 73.35589597 -22.375 86.5625 Z M-70 192 C-70.05834082 221.54882281 -70.05834082 221.54882281 -70.09765625 251.09765625 C-70.10948868 263.16066198 -70.12334134 275.22363962 -70.15087891 287.28662109 C-70.17093137 296.07496786 -70.18374431 304.86329167 -70.18817699 313.65166068 C-70.19076447 318.2968987 -70.19676412 322.9420711 -70.21146011 327.5872879 C-70.33730208 369.06733464 -68.19983484 406.0733357 -40 439 C-39.31292969 439.82113281 -38.62585938 440.64226562 -37.91796875 441.48828125 C-16.80657165 465.94707104 14.31837003 479.81659652 46.29003906 482.16845703 C80.13521489 483.92464397 111.63655941 471.31496805 136.7421875 449.00390625 C161.29148433 426.65993331 174.00330715 395.76971031 175.9051578 363.02606535 C176.2033602 356.65572002 176.12888511 350.27252873 176.11352539 343.89697266 C176.11324259 342.22990419 176.11340307 340.5628356 176.1139679 338.89576721 C176.11425224 334.41532302 176.10841465 329.93490615 176.10139394 325.45446825 C176.09509953 320.755322 176.09455182 316.05617497 176.09336853 311.35702515 C176.09027304 302.47870241 176.0820839 293.60039214 176.07201904 284.72207487 C176.05870076 272.71053638 176.05334359 260.69899443 176.04751682 248.68745041 C176.03814263 229.79162429 176.01821187 210.89582446 176 192 C140.36 192 104.72 192 68 192 C67.97421875 202.61414063 67.9484375 213.22828125 67.921875 224.1640625 C67.89671367 230.88152897 67.8705497 237.59896663 67.83984375 244.31640625 C67.79127491 254.98258272 67.74684264 265.64866336 67.72900391 276.31494141 C67.71599356 284.08292619 67.68904475 291.85071644 67.64538693 299.61859167 C67.62275812 303.73132623 67.60709016 307.84382073 67.60811615 311.95662308 C67.60886194 315.82928492 67.59094453 319.70141581 67.55883217 323.57394028 C67.55032699 324.99367094 67.54858749 326.41346112 67.55419731 327.83320618 C67.60000873 341.21119719 67.60000873 341.21119719 63 346 C58.44919014 349.10282491 54.35516887 349.77114432 49 349 C44.92526308 347.58951414 42.16553219 345.83251288 39.82994843 342.14442062 C37.83815249 336.99801858 38.43258876 331.17741403 38.45410156 325.73291016 C38.4453611 324.27390442 38.43487367 322.81490827 38.42277527 321.35592651 C38.3949521 317.40591804 38.39150976 313.45622292 38.39249516 309.5061307 C38.38936287 305.37408234 38.36373809 301.24217446 38.34051514 297.11019897 C38.29997575 289.29055506 38.2796193 281.47099449 38.26654124 273.65126169 C38.24769424 263.08106373 38.19761446 252.51101653 38.14929771 241.94091988 C38.07402538 225.29395441 38.0404352 208.64717094 38 192 C2.36 192 -33.28 192 -70 192 Z " fill="#000000" transform="translate(203,0)"/>
</svg>
