<?xml version="1.0" encoding="UTF-8"?>
<svg version="1.1" xmlns="http://www.w3.org/2000/svg" width="30" height="30" viewBox="0 0 119 150">
<path d="M0 0 C2.57849697 2.13646891 3.85620854 3.72950925 5.1875 6.8125 C5.62208139 11.5928953 5.17891026 15.43139744 3.1875 19.8125 C-0.00460925 22.89478897 -2.44232537 23.24453728 -6.8125 23.25 C-7.84375 23.26933594 -8.875 23.28867187 -9.9375 23.30859375 C-13.46396384 22.70008708 -14.60378103 21.56307759 -16.8125 18.8125 C-18.90732859 13.92456662 -18.35723641 8.28328829 -16.5625 3.4375 C-12.67194393 -2.3983341 -6.15504493 -2.59879675 0 0 Z " fill="#000000" transform="translate(39.8125,1.1875)"/>
<path d="M0 0 C3.61177103 0.24078474 5.54126348 0.62576757 8.375 2.9375 C10 5 10 5 10 7 C7.36 7.66 4.72 8.32 2 9 C1.01 6.36 0.02 3.72 -1 1 C-0.67 0.67 -0.34 0.34 0 0 Z " fill="#000000" transform="translate(46,0)"/>
<path d="M0 0 C-0.66 2.97 -1.32 5.94 -2 9 C-4.64 8.34 -7.28 7.68 -10 7 C-8.2054392 2.26888516 -5.07937287 0 0 0 Z " fill="#000000" transform="translate(72,0)"/>
<path d="M0 0 C3.5 1.375 3.5 1.375 6 4 C7.72262126 9.89587633 7.29719316 15.37187676 5 21 C3.20108175 23.47206185 2.32362853 23.94882797 -0.7421875 24.43359375 C-9.21888541 24.4441632 -9.21888541 24.4441632 -13.1875 22.1875 C-16.41346076 18.29409909 -16.38779727 14.37583309 -16.359375 9.515625 C-15.77622918 5.43360426 -13.98140974 3.7684519 -11 1 C-7.51188897 -0.74405552 -3.81319279 -0.42866429 0 0 Z " fill="#000000" transform="translate(89,0)"/>
<path d="M0 0 C0.78375 0.04125 1.5675 0.0825 2.375 0.125 C2.41238281 0.92164063 2.44976562 1.71828125 2.48828125 2.5390625 C2.85160604 8.39500329 3.16627385 13.04451693 6.375 18.125 C6.705 18.785 7.035 19.445 7.375 20.125 C6.715 20.125 6.055 20.125 5.375 20.125 C4.385 22.6 4.385 22.6 3.375 25.125 C1.1875 25.4375 1.1875 25.4375 -1.625 25.125 C-5.22368411 22.09883382 -7.35287375 19.87242845 -7.828125 15.07421875 C-7.93407167 9.96229187 -7.44224204 6.56757399 -4.625 2.125 C-2.625 0.125 -2.625 0.125 0 0 Z " fill="#000000" transform="translate(16.625,6.875)"/>
<path d="M0 0 C2.359375 -0.1484375 2.359375 -0.1484375 5 0 C9.56925823 4.82310591 10.28778528 8.01465534 10.22265625 14.453125 C9.92472392 17.86105274 8.90529178 20.17734551 7 23 C3.78697711 25.14201526 2.73290719 25.65325876 -1 25 C-2.9375 22.8125 -2.9375 22.8125 -4 20 C-3.25 17.3125 -3.25 17.3125 -2 15 C-0.58365167 12.16730334 -0.6536995 9.52533562 -0.4375 6.375 C-0.31181641 4.59222656 -0.31181641 4.59222656 -0.18359375 2.7734375 C-0.12300781 1.85820312 -0.06242187 0.94296875 0 0 Z " fill="#000000" transform="translate(99,7)"/>
<path d="M0 0 C3.57522036 1.91714715 5.69716116 4.09148347 7 8 C7.39400565 12.89476249 7.60186749 17.44781543 5.8125 22.0625 C2.67570472 25.41562599 0.01558007 25.92745857 -4.5 26.25 C-8.92485105 25.93393921 -11.72625118 25.41022191 -14.75 22.0625 C-17.29271915 17.86701341 -17.37372193 13.77429766 -17 9 C-15.99869834 5.53395578 -14.83133204 3.26506563 -12 1 C-7.92814056 -0.35728648 -4.25316911 -0.6593499 0 0 Z " fill="#000000" transform="translate(64,10)"/>
<path d="M0 0 C1.70884005 1.62339805 3.37446717 3.29319053 5 5 C5 5.66 5 6.32 5 7 C4.236875 7.12375 3.47375 7.2475 2.6875 7.375 C-1.19461823 9.7223273 -1.42971619 12.63193166 -2.51953125 16.8828125 C-2.67808594 17.58148438 -2.83664063 18.28015625 -3 19 C-5.60691949 14.53388212 -5.21411247 10.91588195 -4 6 C-2.8552564 3.72441658 -1.59705611 2.00919963 0 0 Z " fill="#000000" transform="translate(6,27)"/>
<path d="M0 0 C3.10679904 2.26344728 3.90538577 3.45254246 4.56640625 7.27734375 C4.5560677 16.96456359 4.5560677 16.96456359 2.1875 21.375 C-2.54457397 23.78742987 -6.79433563 23.72018214 -12 23 C-15.05404763 21.75344995 -16.39516085 20.98313077 -18.10546875 18.203125 C-19.13993195 15.65536411 -19.26672517 13.7429281 -19.25 11 C-19.25515625 10.154375 -19.2603125 9.30875 -19.265625 8.4375 C-18.97647015 5.78407906 -18.4839192 4.21387299 -17 2 C-11.4088276 -0.84463157 -6.1058816 -2.10033145 0 0 Z " fill="#000000" transform="translate(41,28)"/>
<path d="M0 0 C3.89320251 3.24433543 5.09014616 6.03716085 6 11 C5.87020563 13.74491064 5.47669436 16.28284214 5 19 C3.83938987 16.67877973 2.70670389 14.36008122 1.625 12 C0.04463719 9.08240713 -1.54563258 7.20046735 -4 5 C-2.68 3.35 -1.36 1.7 0 0 Z " fill="#000000" transform="translate(111,27)"/>
<path d="M0 0 C2.7155031 4.45696704 2.6711699 8.92627516 2 14 C0.67842637 17.11068509 -0.90289016 19.45144508 -4 21 C-9.70054857 21.66520434 -14.38750938 22.08533022 -19.25 18.8125 C-22.31817933 14.02062441 -22.01096608 7.39646723 -21 2 C-19.01163919 -0.46392752 -17.72595322 -1.73785023 -14.75 -2.8125 C-9.78309002 -3.15115295 -4.14507798 -3.02909544 0 0 Z " fill="#000000" transform="translate(94,30)"/>
<path d="M0 0 C3.97007156 0.27698174 5.72389212 0.76684223 8.8125 3.375 C12.15852841 7.39023409 12.27553065 10.69986381 12.2265625 15.7109375 C11.8033799 19.98654105 9.985667 23.014333 7 26 C4.34462628 26.56520003 1.70855287 26.73788198 -1 27 C-1.67408308 25.73308493 -2.33900497 24.46129251 -3 23.1875 C-3.556875 22.12595703 -3.556875 22.12595703 -4.125 21.04296875 C-5 19 -5 19 -5 16 C-4.54625 15.34 -4.0925 14.68 -3.625 14 C-1.23108948 9.58047288 -0.73427352 4.93259035 0 0 Z " fill="#000000" transform="translate(100,35)"/>
<path d="M0 0 C0.03867187 0.96099609 0.03867187 0.96099609 0.078125 1.94140625 C0.47640976 8.1746723 0.47640976 8.1746723 3.375 13.5625 C5 17 5 17 4.1484375 19.4296875 C2.87232559 21.71813399 1.52552569 23.87102269 0 26 C-7.35090153 25.63245492 -7.35090153 25.63245492 -10.4375 22.625 C-13.32061523 17.78136641 -13.49785765 13.49522124 -13 8 C-11.98113203 4.76359585 -11.24302132 2.80223362 -8.34765625 0.93359375 C-5.05809745 -0.61729761 -3.50806528 -1.16935509 0 0 Z " fill="#000000" transform="translate(19,36)"/>
<path d="M0 0 C3.25677983 2.04711875 3.96713152 3.71389456 5.1875 7.375 C5.72211577 12.36962954 5.8718239 16.77824423 3.875 21.4375 C1.59815565 24.05165463 -0.09275254 25.27759828 -3.5546875 25.74609375 C-12.0527017 25.92622622 -12.0527017 25.92622622 -16 23.0625 C-19.23135742 18.27117693 -19.20626254 13.96642801 -18.8125 8.375 C-17.82777433 4.8905861 -16.65249569 2.64699655 -13.8125 0.375 C-9.16499123 -1.17416959 -4.72659505 -1.05035446 0 0 Z " fill="#000000" transform="translate(65.8125,39.625)"/>
<path d="M0 0 C3.1320333 2.39508429 4.42376522 3.7682087 5.125 7.625 C5.6590096 13.27317844 5.50923004 17.84039891 2.125 22.625 C-2.04274702 25.32177748 -7.06629398 25.17481575 -11.875 24.625 C-15.4124807 23.27022016 -16.49649795 22.3820041 -18.1875 19 C-19.33082955 13.3872913 -19.57286003 8.64512114 -17.6875 3.1875 C-13.63048789 -2.54827574 -6.02426342 -2.88116946 0 0 Z " fill="#000000" transform="translate(40.875,55.375)"/>
<path d="M0 0 C3.17596441 2.19292781 3.82453807 3.05032895 4.625 6.8125 C5.17517289 12.79437974 5.19128582 17.71780597 1.625 22.8125 C-1.41383304 24.74149836 -3.80645489 25.08425942 -7.375 25.0625 C-8.6434375 25.07023437 -8.6434375 25.07023437 -9.9375 25.078125 C-12.58020892 24.79013749 -14.15984331 24.27161408 -16.375 22.8125 C-19.02052989 17.99385628 -19.97207545 14.38520424 -19.375 8.8125 C-18.16126172 4.97964228 -17.20973569 2.55183732 -14.1875 -0.125 C-9.08368748 -2.05310695 -5.01671485 -1.76514041 0 0 Z " fill="#000000" transform="translate(91.375,55.1875)"/>
<path d="M0 0 C3.23634371 3.23634371 3.639933 6.42643069 4.015625 10.8046875 C3.99599629 13.56252184 3.32121278 15.59072963 2 18 C0.05515683 15.08273524 -1.43417937 12.13164127 -3 9 C-3.66 8.01 -4.32 7.02 -5 6 C-3.35 4.02 -1.7 2.04 0 0 Z " fill="#000000" transform="translate(114,57)"/>
<path d="M0 0 C0.66 0 1.32 0 2 0 C3.38938077 1.96147874 4.7260411 3.96166576 6 6 C5.38125 6.70125 4.7625 7.4025 4.125 8.125 C1.9572991 11.05777181 0.97344445 13.51182406 0 17 C-2.73166874 14.26833126 -2.68363494 12.07945785 -3.046875 8.33203125 C-2.98020875 5.01538537 -1.7656009 2.7543374 0 0 Z " fill="#000000" transform="translate(3,58)"/>
<path d="M0 0 C0.10957031 0.81984375 0.21914063 1.6396875 0.33203125 2.484375 C0.49058594 3.56203125 0.64914063 4.6396875 0.8125 5.75 C0.96332031 6.81734375 1.11414062 7.8846875 1.26953125 8.984375 C2.01965535 12.08114403 3.00944991 13.57861852 5 16 C5 16.66 5 17.32 5 18 C4.34 18 3.68 18 3 18 C2.690625 18.94875 2.38125 19.8975 2.0625 20.875 C1 24 1 24 0 26 C-4.26769478 25.74895913 -6.49837505 25.40348094 -9.875 22.6875 C-13.39238632 18.23904083 -13.3818577 14.63240107 -13 9 C-12.0782129 5.63818821 -10.99310731 2.78763683 -8.1875 0.5625 C-5.42093158 -0.14890331 -2.84639812 -0.03494895 0 0 Z " fill="#000000" transform="translate(19,65)"/>
<path d="M0 0 C4.62047211 -0.32235852 7.38777647 -0.01018628 11 3 C13.61858074 8.3618558 13.83916641 14.0951932 12.1875 19.8125 C10.14925373 23.56716418 10.14925373 23.56716418 8 25 C5.32007298 25.54659898 2.73671493 25.7756791 0 26 C-3 20.25 -3 20.25 -3 18 C-3.66 18 -4.32 18 -5 18 C-4.71125 17.443125 -4.4225 16.88625 -4.125 16.3125 C-1.45292101 10.81989319 -0.50143877 6.05685256 0 0 Z " fill="#000000" transform="translate(99,65)"/>
<path d="M0 0 C1.1446875 -0.01675781 2.289375 -0.03351563 3.46875 -0.05078125 C6.5 0.3125 6.5 0.3125 8.328125 1.63671875 C11.73345784 6.50634471 11.66404022 11.57199052 10.984375 17.19921875 C10.23852771 20.45327831 9.51065141 22.62786518 6.68359375 24.54296875 C1.73402603 26.28727079 -3.66409741 26.03921144 -8.5 24.125 C-12.06285563 20.89616209 -12.4314019 18.16311643 -12.8125 13.4375 C-12.69800803 9.11951727 -11.54866733 6.10632838 -9.5 2.3125 C-5.94223788 -0.05934142 -4.21979393 0.01425606 0 0 Z " fill="#000000" transform="translate(59.5,68.6875)"/>
<path d="M0 0 C3.33648448 2.68772361 5.00429703 4.79975509 5.53515625 9.1484375 C5.71571925 14.37691383 5.41573767 18.44596528 2.25 22.8125 C-1.88207352 25.48619463 -6.98446707 25.58302553 -11.75 24.8125 C-16.09375 22.56305804 -16.09375 22.56305804 -17.75 19.8125 C-19.31242415 13.77670669 -19.56278088 7.43806176 -16.75 1.8125 C-11.31783493 -1.48940426 -5.94517289 -2.56723375 0 0 Z " fill="#000000" transform="translate(40.75,84.1875)"/>
<path d="M0 0 C3.35610528 2.20544061 4.01234979 4.66464933 5.1875 8.4375 C5.60791195 13.23019624 5.23017384 17.06034178 3.1875 21.4375 C0.9814555 23.97779366 -0.60718031 25.24281134 -3.96484375 25.78515625 C-8.68105432 25.96564351 -12.10448376 25.60021973 -15.8125 22.4375 C-19.02300901 18.67345495 -19.2129226 15.34338192 -19.0390625 10.5859375 C-18.65855317 6.97765941 -17.66771729 4.47863409 -15.375 1.6875 C-11.06834796 -1.75782163 -5.10005398 -1.0200108 0 0 Z " fill="#000000" transform="translate(90.8125,83.5625)"/>
<path d="M0 0 C0.598125 0.45375 1.19625 0.9075 1.8125 1.375 C3.50590652 2.63295913 5.24477086 3.82984724 7 5 C5.68 7.64 4.36 10.28 3 13 C-0.92546855 9.07453145 -0.65702068 7.40192429 -1 2 C-0.67 1.34 -0.34 0.68 0 0 Z " fill="#000000" transform="translate(6,89)"/>
<path d="M0 0 C0.2954439 5.02254631 -0.01485372 7.89542386 -3 12 C-4.94268841 9.08596738 -6.46395304 6.14191424 -8 3 C-2.25 0 -2.25 0 0 0 Z " fill="#000000" transform="translate(113,90)"/>
<path d="M0 0 C0.99 0 1.98 0 3 0 C3.03867187 0.85271484 3.03867187 0.85271484 3.078125 1.72265625 C3.50434233 7.52502403 4.79821783 11.1456851 8 16 C6.02 18.97 6.02 18.97 4 22 C1.1875 21.875 1.1875 21.875 -2 21 C-5.03600332 16.74959535 -5.63103462 13.13842474 -5 8 C-3.72379728 5.10842356 -2.257047 2.257047 0 0 Z " fill="#000000" transform="translate(16,95)"/>
<path d="M0 0 C3.7890625 0.765625 3.7890625 0.765625 5.6875 2.875 C8.19188416 6.92971722 8.31751725 10.31662053 8 15 C6.875 18.375 6.875 18.375 5 21 C1.8125 21.875 1.8125 21.875 -1 22 C-2.32 19.69 -3.64 17.38 -5 15 C-4.360625 14.195625 -3.72125 13.39125 -3.0625 12.5625 C-0.40147674 8.64148693 -0.20593653 4.63357199 0 0 Z " fill="#000000" transform="translate(99,95)"/>
<path d="M0 0 C3.25 1.6875 3.25 1.6875 5 5 C5.8548373 11.67627929 6.12708392 17.41629822 2 23 C-1.91776386 24.95888193 -6.71873625 24.35831645 -11 24 C-14.11937969 22.62747293 -15.4897715 22.020457 -17 19 C-17.14901491 16.89946284 -17.22138453 14.79312175 -17.25 12.6875 C-17.27578125 11.55699219 -17.3015625 10.42648438 -17.328125 9.26171875 C-16.9685426 5.68729849 -16.14022123 3.85189674 -14 1 C-9.78123715 -1.10938142 -4.58416003 -0.49443004 0 0 Z " fill="#000000" transform="translate(65,98)"/>
<path d="M0 0 C2.86674312 1.84290629 4.28138479 3.35437631 5.14453125 6.703125 C5.88326129 12.33717273 5.54528913 15.75321837 2.625 20.6875 C-2.12538029 23.86152091 -7.91209534 23.38902054 -13.375 22.6875 C-16.72211062 20.65298178 -17.92539981 19.34008448 -18.953125 15.5625 C-19.68843652 10.83093019 -19.46862194 7.08410608 -17.375 2.6875 C-13.0486455 -2.76746872 -5.96274642 -2.31884583 0 0 Z " fill="#000000" transform="translate(41.375,113.3125)"/>
<path d="M0 0 C3.26313005 2.14434261 4.41446808 4.73508394 5.1875 8.4375 C5.45214759 13.43466914 4.89802556 17.21245593 2.375 21.5625 C-2.47164948 24.41347028 -7.31669533 24.15565879 -12.8125 23.4375 C-16.14503442 22.19142191 -16.75289621 21.52690568 -18.8125 18.4375 C-20.21537744 13.41052252 -19.73090847 9.22331688 -17.8125 4.4375 C-13.13482981 -1.44731088 -6.92730565 -1.38546113 0 0 Z " fill="#000000" transform="translate(90.8125,112.5625)"/>
<path d="M0 0 C0.99 0.33 1.98 0.66 3 1 C3 3.31 3 5.62 3 8 C2.34 7.67 1.68 7.34 1 7 C0.59270772 4.67843403 0.25561323 2.3431213 0 0 Z " fill="#000000" transform="translate(16,120)"/>
<path d="M0 0 C0.93065133 2.60582371 1.14917407 3.64198224 0.0625 6.25 C-0.4634375 7.11625 -0.4634375 7.11625 -1 8 C-1.33 8 -1.66 8 -2 8 C-2 5.69 -2 3.38 -2 1 C-1.34 0.67 -0.68 0.34 0 0 Z " fill="#000000" transform="translate(101,120)"/>
<path d="M0 0 C2.86942113 2.26533247 3.83907612 3.51722837 5 7 C5.38798028 11.81817376 5.69988625 16.82744852 3 21 C-0.58329595 23.62192387 -3.29968845 24.21703452 -7.625 23.875 C-11.11732142 23.3282224 -13.57476498 22.7283894 -16 20 C-18.11897261 15.23231162 -17.59339073 8.99108382 -15.9375 4.125 C-14 1 -14 1 -10.75 -0.5 C-6.7616646 -1.03177805 -3.89118943 -1.02786136 0 0 Z " fill="#000000" transform="translate(65,126)"/>
<path d="M0 0 C0.66 0.33 1.32 0.66 2 1 C1.01 2.485 1.01 2.485 0 4 C0.29704962 8.15869464 0.66938148 10.50407222 3 14 C-0.875 12.25 -0.875 12.25 -2 10 C-2.35294118 3.52941176 -2.35294118 3.52941176 0 0 Z " fill="#000000" transform="translate(104,127)"/>
<path d="M0 0 C1.65 0 3.3 0 5 0 C4.01 0.66 3.02 1.32 2 2 C1.26393501 5.56769552 1.26393501 5.56769552 1 9 C0.67 9 0.34 9 0 9 C0 6.03 0 3.06 0 0 Z " fill="#000000" transform="translate(107,129)"/>
<path d="M0 0 C2.64 0.33 5.28 0.66 8 1 C7.34 2.65 6.68 4.3 6 6 C3.69 6.33 1.38 6.66 -1 7 C-0.67 4.69 -0.34 2.38 0 0 Z " fill="#000000" transform="translate(74,138)"/>
<path d="M0 0 C0.33 2.31 0.66 4.62 1 7 C-1.31 6.67 -3.62 6.34 -6 6 C-6.66 4.35 -7.32 2.7 -8 1 C-2.25 0 -2.25 0 0 0 Z " fill="#000000" transform="translate(44,138)"/>
</svg>
