<?xml version="1.0" encoding="UTF-8" standalone="no"?>
<!-- Created with Inkscape (http://www.inkscape.org/) -->

<svg
   width="30"
   height="30"
   viewBox="0 0 16.418898 19.744484"
   version="1.1"
   id="svg1"
   xml:space="preserve"
   xmlns="http://www.w3.org/2000/svg"
   xmlns:svg="http://www.w3.org/2000/svg"><defs
     id="defs1" /><g
     id="layer1"
     transform="translate(-33.759036,-137.53715)"><g
       id="group-R5"
       transform="matrix(0.26458333,0,0,0.26458333,33.759107,137.53782)"><path
         id="path2"
         d="m 54.2383,387.363 c 5.2969,-0.547 11.2148,-0.984 17.793,-1.133 3.0703,14.911 10.0859,27.188 19.8046,34.93 -9.5351,7.317 -15.0156,14.555 -17.9375,24.082 -3.7265,12.168 -6.3984,25.578 -3.4023,40.969 -10.2266,1.094 -20.2422,-0.879 -29.8125,-6.145 -8.3672,-4.57 -16.8438,-18.925 -17.6523,-26.961 -1.8243,-13.781 -3.0704,-39.101 8.8085,-54.16 5.3008,-6.718 12.8243,-10.597 22.3985,-11.582"
         style="fill:#231f20;fill-opacity:1;fill-rule:nonzero;stroke:none"
         transform="matrix(0.13333333,0,0,-0.13333333,0,82.346667)" /><path
         id="path3"
         d="m 105.762,213.105 c 17.718,-7.05 39.644,-3.292 50.605,4.454 8.844,6.25 14.985,19.082 16.446,34.277 1.753,18.269 -3.364,36.102 -13.34,46.484 -11.184,11.653 -33.18,10.41 -51.157,8.035 -7.492,-1.023 -13.4801,-4.609 -17.7926,-10.671 -10.1562,-14.329 -9.6484,-39.649 -5.7734,-58.575 2.9219,-14.14 13.0078,-20.859 21.012,-24.004"
         style="fill:#231f20;fill-opacity:1;fill-rule:nonzero;stroke:none"
         transform="matrix(0.13333333,0,0,-0.13333333,0,82.346667)" /><path
         id="path4"
         d="m 408.316,398.945 c 11.875,15.059 10.633,40.34 8.84,54.16 -0.804,8.036 -9.312,22.391 -17.683,26.961 -9.575,5.266 -19.551,7.239 -29.821,6.145 3.039,-15.418 0.332,-28.801 -3.39,-40.969 -2.895,-9.527 -8.371,-16.765 -17.871,-24.082 9.644,-7.742 16.699,-20.019 19.73,-34.93 6.574,0.149 12.5,0.586 17.797,1.133 9.57,0.985 17.102,4.864 22.398,11.582"
         style="fill:#231f20;fill-opacity:1;fill-rule:nonzero;stroke:none"
         transform="matrix(0.13333333,0,0,-0.13333333,0,82.346667)" /><path
         id="path5"
         d="m 283.824,217.559 c 10.922,-7.746 32.887,-11.504 50.606,-4.454 7.968,3.145 18.05,9.864 20.976,24.004 3.871,18.926 4.383,44.246 -5.773,58.575 -4.317,6.062 -10.309,9.648 -17.797,10.671 -17.941,2.375 -39.977,3.618 -51.156,-8.035 -9.977,-10.382 -15.094,-28.215 -13.336,-46.406 1.5,-15.273 7.597,-28.105 16.48,-34.355"
         style="fill:#231f20;fill-opacity:1;fill-rule:nonzero;stroke:none"
         transform="matrix(0.13333333,0,0,-0.13333333,0,82.346667)" /><path
         id="path6"
         d="m 141.133,426.824 2.152,0.117 c 4.313,1.094 7.969,2.414 11.77,5.332 8.402,6.465 11.726,11.543 13.113,20.098 2.379,14.211 3.07,26.203 -0.547,41.875 -1.933,8.516 -11.473,18.051 -19.586,19.699 -18.125,3.614 -32.371,2.957 -46.183,-2.234 -8.2582,-3.137 -14.2895,-9.055 -17.8715,-17.609 -6.6133,-16.004 -3.3242,-37.09 2.8164,-50.832 10.5234,-18.965 33.8321,-17.645 54.3361,-16.446"
         style="fill:#231f20;fill-opacity:1;fill-rule:nonzero;stroke:none"
         transform="matrix(0.13333333,0,0,-0.13333333,0,82.346667)" /><path
         id="path7"
         d="m 166.563,614.5 c 7.675,-8.77 12.093,-19.805 13.339,-33.469 7.418,5.809 17.395,9.461 29.817,10.926 -3.508,12.934 -14.543,23.164 -28.504,25.137 -4.75,0.699 -10.008,-0.84 -14.652,-2.594"
         style="fill:#231f20;fill-opacity:1;fill-rule:nonzero;stroke:none"
         transform="matrix(0.13333333,0,0,-0.13333333,0,82.346667)" /><path
         id="path8"
         d="m 408.137,549.203 c -1.102,8.735 -2.235,16.039 -5.703,24.192 -0.223,0.398 -1.063,1.824 -1.063,1.824 -2.887,4.898 -5.148,8.769 -9.902,12.5 -7.489,5.625 -15.199,5.551 -24.114,5.406 h -0.074 c 3.071,-15.055 3.985,-36.684 -3.105,-54.371 -3.219,-7.969 -7.965,-12.426 -13.008,-17.106 -0.477,-0.468 -0.953,-0.945 -1.426,-1.386 2.629,-2.41 6.395,-5.914 8.844,-9.278 4.309,-5.957 6.828,-9.871 8.621,-15.125 13.594,0.801 18.637,3.282 28.246,11.836 2.813,2.559 6.25,8.77 9.242,16.512 1.102,3.547 4.645,15.789 3.442,24.996"
         style="fill:#231f20;fill-opacity:1;fill-rule:nonzero;stroke:none"
         transform="matrix(0.13333333,0,0,-0.13333333,0,82.346667)" /><path
         id="path9"
         d="m 229.855,591.957 c 12.418,-1.465 22.395,-5.117 29.813,-10.926 1.246,13.664 5.664,24.699 13.34,33.469 -4.68,1.754 -9.903,3.293 -14.653,2.594 -13.96,-1.973 -24.996,-12.203 -28.5,-25.137"
         style="fill:#231f20;fill-opacity:1;fill-rule:nonzero;stroke:none"
         transform="matrix(0.13333333,0,0,-0.13333333,0,82.346667)" /><path
         id="path10"
         d="m 134.664,617.094 c -10.195,0.734 -21.965,1.207 -32.121,-2.192 -5.8086,-2.3 -10.1953,-5.664 -14.211,-10.89 -2.707,-3.578 -4.3867,-6.942 -4.9726,-10.008 -2.4102,-13.121 -2.1211,-39.758 3.8398,-51.672 5.043,-10.156 9.2422,-12.059 14.2108,-13.519 13.778,-4.02 28.793,-3.946 44.653,0.074 8.257,2.047 15.242,9.355 18.566,19.437 3.687,14.766 4.312,26.676 2.082,41.074 -3.254,15.2 -16.441,26.602 -32.047,27.696"
         style="fill:#231f20;fill-opacity:1;fill-rule:nonzero;stroke:none"
         transform="matrix(0.13333333,0,0,-0.13333333,0,82.346667)" /><path
         id="path11"
         d="m 413.32,517.703 c -3.691,-10.406 -9.316,-18.633 -16.48,-23.68 21.418,-8.398 31.754,-31.054 31.867,-53.925 6.797,10.886 9.098,25.722 5.844,41.875 -1.207,8.515 -5.813,28.132 -21.231,35.73"
         style="fill:#231f20;fill-opacity:1;fill-rule:nonzero;stroke:none"
         transform="matrix(0.13333333,0,0,-0.13333333,0,82.346667)" /><path
         id="path12"
         d="M 5.56641,481.785 C 2.34766,465.676 4.6875,450.906 11.4844,440.098 c 0.1133,22.871 10.414,45.527 31.8633,53.925 -7.1602,5.047 -12.8243,13.274 -16.4766,23.68 C 11.4102,510.105 6.80469,490.371 5.56641,481.785"
         style="fill:#231f20;fill-opacity:1;fill-rule:nonzero;stroke:none"
         transform="matrix(0.13333333,0,0,-0.13333333,0,82.346667)" /><path
         id="path13"
         d="m 36.5508,286.992 c 9.3555,-7.195 23.0234,-10.449 36.1055,-8.996 1.7539,15.422 7.8164,25.91 19.914,34.641 -18.0898,9.941 -23.207,39.355 -22.0351,63.808 -11.9844,0.653 -21.8555,-1.25 -30.5821,-6.14 -18.8593,-10.453 -19.0039,-35.16 -16.3359,-60.293 0.9883,-9.36 5.4453,-17.328 12.9336,-23.02"
         style="fill:#231f20;fill-opacity:1;fill-rule:nonzero;stroke:none"
         transform="matrix(0.13333333,0,0,-0.13333333,0,82.346667)" /><path
         id="path14"
         d="m 37.7188,573.395 c -3.4336,-8.114 -4.6055,-15.457 -5.6954,-24.192 -1.207,-9.207 2.336,-21.336 3.3946,-24.808 3.0742,-8.079 6.4336,-14.141 9.2851,-16.7 9.6407,-8.554 14.6524,-11.035 28.2422,-11.836 1.832,5.254 4.3164,9.2 8.6289,15.125 2.4453,3.364 6.2422,6.868 8.875,9.278 -0.5117,0.441 -0.9844,0.918 -1.4609,1.386 -5.043,4.68 -9.793,9.137 -12.9727,17.106 -7.125,17.687 -6.1758,39.316 -3.1054,54.371 h -0.1094 c -8.9141,0.145 -16.625,0.219 -24.0078,-5.332 -4.8242,-3.805 -7.0508,-7.637 -9.9414,-12.5 l -1.1328,-1.898"
         style="fill:#231f20;fill-opacity:1;fill-rule:nonzero;stroke:none"
         transform="matrix(0.13333333,0,0,-0.13333333,0,82.346667)" /><path
         id="path15"
         d="m 403.637,286.992 c 7.457,5.692 11.914,13.66 12.933,23.02 2.633,25.133 2.489,49.84 -16.332,60.293 -8.769,4.89 -18.633,6.793 -30.621,6.14 1.207,-24.453 -3.941,-53.867 -21.996,-63.808 12.098,-8.731 18.16,-19.219 19.879,-34.641 13.082,-1.453 26.746,1.801 36.137,8.996"
         style="fill:#231f20;fill-opacity:1;fill-rule:nonzero;stroke:none"
         transform="matrix(0.13333333,0,0,-0.13333333,0,82.346667)" /><path
         id="path16"
         d="m 355.406,135.195 c 3.692,23.465 4.75,48.789 -15.019,58.653 -22.731,11.367 -55.324,9.394 -68.512,-13.633 -4.75,-8.399 -6.43,-22.617 -6.43,-32.266 0,-8.801 2.844,-17.207 8.696,-25.683 10.449,-15.129 37.523,-16.004 57.515,-12.129 11.981,2.293 19.766,10.515 23.75,25.058"
         style="fill:#231f20;fill-opacity:1;fill-rule:nonzero;stroke:none"
         transform="matrix(0.13333333,0,0,-0.13333333,0,82.346667)" /><path
         id="path17"
         d="m 250.203,246.719 c -17.316,9.941 -42.898,9.902 -60.91,0 -14.543,-8.039 -15.168,-57.071 -8.258,-69.864 7.93,-14.726 26.961,-16.953 41.582,-16.3 15.453,0.734 26.09,2.05 33.36,12.941 6.25,9.356 6.687,24.188 6.984,33.027 0.508,18.348 -0.074,32.957 -12.758,40.196"
         style="fill:#231f20;fill-opacity:1;fill-rule:nonzero;stroke:none"
         transform="matrix(0.13333333,0,0,-0.13333333,0,82.346667)" /><path
         id="path18"
         d="m 355.73,343.445 c 5.415,21.672 4.645,39.504 -2.371,54.551 -3.511,6.145 -9.683,13.957 -19.257,16.34 -23.825,3.984 -41.403,3.691 -54.957,-9.871 -9.942,-9.973 -11.036,-30.219 -11.036,-38.402 0,-19.801 5.664,-34.786 15.567,-40.997 11.402,-7.207 26.125,-7.675 44.726,-6.101 13.883,1.133 25.106,11.18 27.328,24.48"
         style="fill:#231f20;fill-opacity:1;fill-rule:nonzero;stroke:none"
         transform="matrix(0.13333333,0,0,-0.13333333,0,82.346667)" /><path
         id="path19"
         d="m 161.012,404.465 c -13.563,13.562 -31.028,13.855 -54.703,9.898 -9.7582,-2.41 -15.934,-10.152 -19.4027,-16.14 -7.0547,-15.207 -7.8594,-33.145 -2.375,-55.039 2.121,-13.079 13.3359,-23.086 27.2227,-24.219 18.637,-1.574 33.324,-1.106 44.762,6.101 9.867,6.211 15.531,21.196 15.531,40.997 0,8.222 -1.063,28.468 -11.035,38.402"
         style="fill:#231f20;fill-opacity:1;fill-rule:nonzero;stroke:none"
         transform="matrix(0.13333333,0,0,-0.13333333,0,82.346667)" /><path
         id="path20"
         d="m 338.305,511.711 c -13.813,5.191 -28.028,5.848 -46.192,2.234 -8.07,-1.648 -17.644,-11.183 -19.586,-19.699 -3.578,-15.672 -2.882,-27.664 -0.547,-41.875 1.387,-8.406 4.829,-13.672 13.122,-20.098 3.8,-2.918 7.492,-4.238 11.761,-5.332 0.555,0 2.16,-0.117 2.16,-0.117 20.54,-1.199 43.813,-2.519 54.192,16.153 6.281,13.925 9.605,35.121 2.957,51.125 -3.578,8.554 -9.609,14.472 -17.867,17.609"
         style="fill:#231f20;fill-opacity:1;fill-rule:nonzero;stroke:none"
         transform="matrix(0.13333333,0,0,-0.13333333,0,82.346667)" /><path
         id="path21"
         d="m 243.809,468.816 c -9.243,3.43 -20.719,4.825 -30.657,3.723 -13.519,-2.266 -25.172,-4.238 -32.375,-18.633 -5.257,-10.527 -5.957,-23.601 -5.957,-33.879 0,-22.39 6.071,-36.355 18.563,-42.597 8.808,-4.422 19.004,-4.278 29.746,-4.129 7.891,0.066 14.726,0.801 22.437,4.129 10.743,5.332 17.133,14.797 18.598,27.367 4.02,34.859 -3.18,57.586 -20.355,64.019"
         style="fill:#231f20;fill-opacity:1;fill-rule:nonzero;stroke:none"
         transform="matrix(0.13333333,0,0,-0.13333333,0,82.346667)" /><path
         id="path22"
         d="m 261.02,292.219 c 0.914,3.394 1.828,6.57 2.234,10.847 2.004,20.829 -0.188,45.645 -12.5,52.911 -12.938,7.636 -33.215,9.285 -51.668,4.168 -16.559,-4.61 -24.266,-20.68 -24.266,-50.497 0,-11.367 2.41,-31.574 18.676,-39.062 12.203,-6.691 25.609,-5.598 39.758,-4.426 0.578,0.219 1.203,0.363 1.824,0.586 3.031,0.949 6.43,2.016 8.949,3.652 l 0.219,0.188 0.113,0.066 h 0.11 l 0.254,0.11 c 8.336,3.144 12.058,9.211 15.382,18.054 0.329,1.164 0.622,2.27 0.915,3.403"
         style="fill:#231f20;fill-opacity:1;fill-rule:nonzero;stroke:none"
         transform="matrix(0.13333333,0,0,-0.13333333,0,82.346667)" /><path
         id="path23"
         d="m 351.199,604.012 c -3.976,5.226 -8.289,8.551 -13.953,10.816 -10.383,3.473 -22.144,3 -32.305,2.266 -15.64,-1.094 -28.828,-12.422 -32.046,-27.477 -2.266,-14.578 -1.68,-26.492 1.972,-41 3.399,-10.301 10.383,-17.683 18.641,-19.73 15.855,-4.02 30.871,-4.094 44.652,-0.074 4.965,1.46 9.168,3.363 14.211,13.519 5.957,11.914 6.246,38.551 3.84,51.672 -0.586,3.066 -2.266,6.43 -5.012,10.008"
         style="fill:#231f20;fill-opacity:1;fill-rule:nonzero;stroke:none"
         transform="matrix(0.13333333,0,0,-0.13333333,0,82.346667)" /><path
         id="path24"
         d="m 236.391,579.75 c -14.102,3.984 -31.899,1.391 -45.2,-6.578 -6.101,-3.652 -10.742,-9.356 -12.64,-15.567 -3.145,-10.265 -4.313,-21.117 -3.438,-32.296 1.684,-21.344 9.903,-34.5 24.375,-39.098 19.692,-6.289 52.836,-5.742 61.313,15.566 8.258,18.848 7.855,41.657 -1.094,59.481 -4.75,9.137 -12.828,15.566 -23.316,18.492"
         style="fill:#231f20;fill-opacity:1;fill-rule:nonzero;stroke:none"
         transform="matrix(0.13333333,0,0,-0.13333333,0,82.346667)" /><path
         id="path25"
         d="m 31.2148,233.242 c 2.6719,12.821 9.9415,26.563 18.6368,35.438 -12.5664,2.89 -22.875,10.851 -28.793,19.472 -2.4492,-9.929 -3.4375,-24.695 0,-35.078 2.3008,-6.824 6.3984,-14.605 10.1562,-19.832"
         style="fill:#231f20;fill-opacity:1;fill-rule:nonzero;stroke:none"
         transform="matrix(0.13333333,0,0,-0.13333333,0,82.346667)" /><path
         id="path26"
         d="m 46.0547,194.766 c 5.6992,-11.004 17.5,-17.254 29.2266,-16.231 2.0117,9.793 7.457,17.395 16.7734,26.856 -5.8438,4.57 -13.7344,12.461 -17.9375,25.214 -2.4141,7.344 -4.0195,24.192 -3.6211,35.625 -3.3984,-0.402 -6.6094,-0.949 -10.668,-3.425 -8.1836,-5.121 -21.7422,-28.657 -19.4023,-48.793 0.8398,-7.489 2.5586,-13.258 5.6289,-19.246"
         style="fill:#231f20;fill-opacity:1;fill-rule:nonzero;stroke:none"
         transform="matrix(0.13333333,0,0,-0.13333333,0,82.346667)" /><path
         id="path27"
         d="m 74.5898,132.273 c -2.8867,12.461 -3.0664,27.336 -1.8242,35.813 -4.0586,-0.148 -8.0781,0.508 -11.9883,1.973 -1.496,-3.907 -2.082,-7.707 -1.2031,-12.129 2.1875,-11.035 7.4531,-19.766 15.0156,-25.657"
         style="fill:#231f20;fill-opacity:1;fill-rule:nonzero;stroke:none"
         transform="matrix(0.13333333,0,0,-0.13333333,0,82.346667)" /><path
         id="path28"
         d="m 12.6172,332.441 c -0.5469,17.618 6.8359,37.637 23.0234,48.094 -5.7773,3.867 -11.4414,8.625 -14.7265,15.195 -0.5118,0.989 -1.0274,1.973 -1.6094,3 -1.3164,2.411 -2.5234,5.079 -3.5078,7.891 C 5.82031,397.996 2.64063,387.043 0.78125,376.262 -1.74219,361.785 1.875,346.914 11.0117,334.414 c 0.6211,-0.867 1.0586,-1.309 1.6055,-1.973"
         style="fill:#231f20;fill-opacity:1;fill-rule:nonzero;stroke:none"
         transform="matrix(0.13333333,0,0,-0.13333333,0,82.346667)" /><path
         id="path29"
         d="m 399.766,214.012 c 2.339,20.136 -11.254,43.672 -19.438,48.793 -4.023,2.476 -7.238,3.023 -10.676,3.425 0.442,-11.394 -1.168,-28.281 -3.578,-35.625 -4.238,-12.753 -12.094,-20.644 -17.976,-25.214 9.351,-9.461 14.761,-17.137 16.769,-26.856 11.77,-1.023 23.571,5.227 29.235,16.231 3.105,5.988 4.785,11.757 5.664,19.246"
         style="fill:#231f20;fill-opacity:1;fill-rule:nonzero;stroke:none"
         transform="matrix(0.13333333,0,0,-0.13333333,0,82.346667)" /><path
         id="path30"
         d="m 108.535,110.137 c 19.988,-3.875 47.031,-3 57.481,12.129 5.882,8.476 8.734,16.882 8.734,25.683 0,9.61 -1.684,23.867 -6.469,32.266 -13.34,23.32 -45.312,25.254 -68.5154,13.633 C 80,183.984 81.0938,158.73 84.75,135.195 c 4.0547,-14.757 11.6172,-22.722 23.785,-25.058"
         style="fill:#231f20;fill-opacity:1;fill-rule:nonzero;stroke:none"
         transform="matrix(0.13333333,0,0,-0.13333333,0,82.346667)" /><path
         id="path31"
         d="m 419.098,253.074 c 3.429,10.383 2.445,25.149 0,35.078 -5.922,-8.621 -16.192,-16.582 -28.793,-19.472 8.695,-8.875 15.965,-22.617 18.633,-35.438 3.8,5.227 7.894,13.008 10.16,19.832"
         style="fill:#231f20;fill-opacity:1;fill-rule:nonzero;stroke:none"
         transform="matrix(0.13333333,0,0,-0.13333333,0,82.346667)" /><path
         id="path32"
         d="m 439.375,376.262 c -1.863,10.781 -5.043,21.734 -15.02,30.359 -0.949,-2.851 -2.191,-5.519 -3.503,-7.891 -0.547,-1.027 -1.102,-2.05 -1.575,-3 -3.285,-6.57 -8.988,-11.328 -14.761,-15.195 16.222,-10.457 23.605,-30.476 23.019,-48.094 0.586,0.664 1.024,1.172 1.61,1.973 9.132,12.5 12.75,27.371 10.23,41.848"
         style="fill:#231f20;fill-opacity:1;fill-rule:nonzero;stroke:none"
         transform="matrix(0.13333333,0,0,-0.13333333,0,82.346667)" /><path
         id="path33"
         d="m 380.582,157.93 c 0.91,4.422 0.324,8.222 -1.207,12.168 -3.91,-1.504 -7.93,-2.16 -11.988,-2.012 1.246,-8.516 1.097,-23.352 -1.824,-35.813 7.562,5.891 12.867,14.692 15.019,25.657"
         style="fill:#231f20;fill-opacity:1;fill-rule:nonzero;stroke:none"
         transform="matrix(0.13333333,0,0,-0.13333333,0,82.346667)" /><path
         id="path34"
         d="m 161.996,74.1406 c 2.887,-0.1093 5.445,0.3633 8.149,1.1328 -2.231,7.3047 -4.168,20.4571 -3.364,32.5196 -10.34,-7.9688 -22.91,-9.9414 -34.711,-10.2344 2.192,-12.9297 16.735,-22.8711 29.926,-23.418"
         style="fill:#231f20;fill-opacity:1;fill-rule:nonzero;stroke:none"
         transform="matrix(0.13333333,0,0,-0.13333333,0,82.346667)" /><path
         id="path35"
         d="m 308.121,97.5586 c -11.836,0.293 -24.371,2.2656 -34.754,10.2344 0.809,-12.0625 -1.094,-25.2149 -3.324,-32.5196 2.707,-0.7695 5.23,-1.2421 8.117,-1.1328 13.227,0.5469 27.77,10.4883 29.961,23.418"
         style="fill:#231f20;fill-opacity:1;fill-rule:nonzero;stroke:none"
         transform="matrix(0.13333333,0,0,-0.13333333,0,82.346667)" /><path
         id="path36"
         d="m 203.105,60.0664 c 10.415,-2.625 20.352,-2.8086 30.364,-0.6523 4.933,1.0625 21.375,5.5976 25.066,18.6328 2.957,10.2344 5.703,36.4731 -1.277,51.0161 -5.301,11.179 -11.582,17.097 -20.281,19.218 -10.45,2.559 -24.704,2.625 -32.485,1.172 -14.215,-2.558 -18.523,-11.953 -21.41,-18.164 -0.148,-0.402 -0.148,-0.402 -0.148,-0.359 -5.192,-11.157 -5.262,-45.5394 -1.246,-53.4691 4.937,-9.7851 11.148,-14.7929 21.417,-17.3945"
         style="fill:#231f20;fill-opacity:1;fill-rule:nonzero;stroke:none"
         transform="matrix(0.13333333,0,0,-0.13333333,0,82.346667)" /><path
         id="path45"
         d="m 55.634084,69.699302 h 0.594667 c 0.692,0 1.028,0.262933 1.124,0.858267 0.172,0.6328 0.265333,1.095866 0.436,1.295333 h 1.353333 c -0.130667,-0.165067 -0.229333,-0.497333 -0.394667,-1.325467 -0.166666,-0.7308 -0.468,-1.158933 -0.994666,-1.3256 v -0.0676 c 0.657333,-0.195333 1.121333,-0.662533 1.121333,-1.286533 0,-0.501067 -0.229333,-0.929733 -0.525333,-1.1588 -0.394667,-0.268267 -0.862667,-0.429733 -1.885333,-0.429733 -0.892,0 -1.589334,0.09787 -2.090667,0.195333 v 5.3984 h 1.261333 z m 0.03467,-2.445333 c 0.130667,-0.03907 0.364,-0.07293 0.690667,-0.07293 0.8,0 1.165333,0.336 1.165333,0.833334 0,0.559866 -0.565333,0.789066 -1.262667,0.789066 h -0.593333 z m 0.822667,-3.649467 c -3.108,0 -5.597334,2.421333 -5.597334,5.431733 0,3.079734 2.489334,5.467734 5.597334,5.467734 3.146666,0 5.563999,-2.388 5.563999,-5.467734 0,-3.0104 -2.417333,-5.431733 -5.530666,-5.431733 z m 0,1.0964 c 2.421333,0 4.175999,1.954133 4.175999,4.335333 0,2.416667 -1.754666,4.371334 -4.142666,4.336534 -2.449333,0 -4.237333,-1.919867 -4.237333,-4.336534 0,-2.3812 1.788,-4.335333 4.176,-4.335333 h 0.028"
         style="fill:#231f20;fill-opacity:1;fill-rule:nonzero;stroke:none;stroke-width:0.133333" /></g></g></svg>
